<svg width="29" height="29" viewBox="0 0 29 29" fill="none" xmlns="http://www.w3.org/2000/svg">
<path d="M8.45834 20.5417H16.9167V18.125H8.45834V20.5417ZM8.45834 15.7083H20.5417V13.2917H8.45834V15.7083ZM8.45834 10.875H20.5417V8.45834H8.45834V10.875ZM6.04167 25.375C5.37709 25.375 4.80796 25.1382 4.33429 24.6645C3.86063 24.1908 3.6242 23.6221 3.625 22.9583V6.04167C3.625 5.37709 3.86184 4.80796 4.3355 4.33429C4.80917 3.86063 5.37789 3.6242 6.04167 3.625H22.9583C23.6229 3.625 24.192 3.86184 24.6657 4.3355C25.1394 4.80917 25.3758 5.37789 25.375 6.04167V22.9583C25.375 23.6229 25.1382 24.192 24.6645 24.6657C24.1908 25.1394 23.6221 25.3758 22.9583 25.375H6.04167Z" fill="#A9A7A7"/>
</svg>
