<svg width="29" height="29" viewBox="0 0 29 29" fill="none" xmlns="http://www.w3.org/2000/svg">
<path d="M12.0834 2.41663H3.62502C2.90002 2.41663 2.41669 2.89996 2.41669 3.62496V12.0833C2.41669 12.8083 2.90002 13.2916 3.62502 13.2916H12.0834C12.8084 13.2916 13.2917 12.8083 13.2917 12.0833V3.62496C13.2917 2.89996 12.8084 2.41663 12.0834 2.41663ZM12.0834 15.7083H3.62502C2.90002 15.7083 2.41669 16.1916 2.41669 16.9166V25.375C2.41669 26.1 2.90002 26.5833 3.62502 26.5833H12.0834C12.8084 26.5833 13.2917 26.1 13.2917 25.375V16.9166C13.2917 16.1916 12.8084 15.7083 12.0834 15.7083ZM25.375 2.41663H16.9167C16.1917 2.41663 15.7084 2.89996 15.7084 3.62496V12.0833C15.7084 12.8083 16.1917 13.2916 16.9167 13.2916H25.375C26.1 13.2916 26.5834 12.8083 26.5834 12.0833V3.62496C26.5834 2.89996 26.1 2.41663 25.375 2.41663ZM25.375 15.7083H16.9167C16.1917 15.7083 15.7084 16.1916 15.7084 16.9166V25.375C15.7084 26.1 16.1917 26.5833 16.9167 26.5833H25.375C26.1 26.5833 26.5834 26.1 26.5834 25.375V16.9166C26.5834 16.1916 26.1 15.7083 25.375 15.7083Z" fill="#A9A7A7"/>
</svg>
