<svg width="42" height="42" viewBox="0 0 42 42" fill="none" xmlns="http://www.w3.org/2000/svg">
<path d="M21.0105 25.2473C20.6824 25.2473 20.4199 24.9848 20.4199 24.6566V22.155L17.2305 21.2008L14.9861 19.2846L20.4199 20.9121V20.5498C20.4199 19.2373 20.7874 17.9379 21.5224 16.8354C21.7416 16.5034 21.924 16.1516 22.0671 15.7854L19.1586 14.9153L15.7723 12.6564L22.3794 14.637C22.4293 14.3325 22.4542 14.0241 22.4542 13.7117V10.9554H23.6355V13.7117C23.6355 13.8639 23.6302 14.0149 23.6197 14.1658L28.7136 12.6433L24.7734 15.0649L23.4071 15.4718C23.2201 16.1761 22.92 16.8454 22.5186 17.4536C21.9148 18.3724 21.5998 19.4486 21.5998 20.5511V21.8531L27.0204 20.2283L23.6906 22.47L21.5998 23.0961V24.6579C21.5998 24.9861 21.3373 25.2486 21.0092 25.2486L21.0105 25.2473Z" fill="#35D185"/>
<path d="M22.8506 2.7195C20.4461 5.51512 20.3753 10.1246 22.6958 13.0213C22.8034 13.1499 22.9806 13.1644 23.0869 13.0344C25.4914 10.2388 25.5623 5.63062 23.2418 2.73394C23.1341 2.59087 22.9569 2.58956 22.8506 2.7195ZM13.9886 15.1279L9.39487 13.7497C8.6205 16.3354 10.0905 19.0522 12.663 19.8397L17.2568 21.2179C18.0443 18.6322 16.5743 15.9022 13.9886 15.1279ZM31.5499 15.0097L26.9561 16.3879C24.3705 17.1754 22.9005 19.8922 23.688 22.4779L28.2818 21.0997C30.8543 20.3122 32.3243 17.5954 31.5499 15.0097ZM15.9167 8.841L11.3229 7.46287C10.5617 10.0485 12.0186 12.7654 14.6042 13.5529L19.1979 14.931C19.5693 13.6883 19.4323 12.349 18.8171 11.2072C18.2019 10.0654 17.1588 9.2144 15.9167 8.841ZM32.6261 7.60725L28.0324 8.98537C27.4167 9.16875 26.8434 9.47211 26.3454 9.87799C25.8475 10.2839 25.4347 10.7842 25.131 11.3503C24.8272 11.9163 24.6384 12.5369 24.5755 13.1762C24.5126 13.8155 24.5767 14.461 24.7643 15.0754L29.358 13.6972C31.9305 12.9097 33.4005 10.1929 32.6261 7.60725Z" fill="#44EA87"/>
<path d="M28.875 26.25C26.6041 24.5441 23.8402 23.6228 21 23.625C18.0456 23.625 15.3103 24.6094 13.125 26.25L21 28.8343L28.875 26.25Z" fill="#FFB39A"/>
<path d="M11.8217 31.4948L12.8454 37.6504C13.0161 38.6479 13.8692 39.3698 14.8667 39.3698H27.1386C28.1361 39.3698 29.0023 38.6479 29.1598 37.6504L30.1967 31.4948L21.0092 29.4079L11.8217 31.4948Z" fill="#3DD68B"/>
<path d="M30.8438 31.5H11.1562C10.7887 31.5 10.5 31.2112 10.5 30.8438V26.9062C10.5 26.5387 10.7887 26.25 11.1562 26.25H30.8438C31.2113 26.25 31.5 26.5387 31.5 26.9062V30.8438C31.5 31.2112 31.2113 31.5 30.8438 31.5Z" fill="#44EA87"/>
</svg>
