<svg width="29" height="29" viewBox="0 0 29 29" fill="none" xmlns="http://www.w3.org/2000/svg">
<path d="M26.8052 14.3018L15.14 2.64512C15.0561 2.56096 14.9563 2.4942 14.8465 2.44864C14.7366 2.40309 14.6189 2.37964 14.5 2.37964C14.3811 2.37964 14.2634 2.40309 14.1536 2.44864C14.0437 2.4942 13.944 2.56096 13.86 2.64512L2.19484 14.3018C1.85499 14.6416 1.66241 15.1032 1.66241 15.5847C1.66241 16.5844 2.47521 17.3972 3.47491 17.3972H4.70402V25.7148C4.70402 26.2161 5.109 26.6211 5.61027 26.6211H12.6875V20.2773H15.8594V26.6211H23.3898C23.891 26.6211 24.296 26.2161 24.296 25.7148V17.3972H25.5251C26.0066 17.3972 26.4682 17.2074 26.808 16.8647C27.5132 16.1567 27.5132 15.0098 26.8052 14.3018Z" fill="#A9A7A7"/>
</svg>
