<svg width="34" height="34" viewBox="0 0 34 34" fill="none" xmlns="http://www.w3.org/2000/svg">
<path fill-rule="evenodd" clip-rule="evenodd" d="M17 30.4584C17.6129 30.4584 19.0189 30.4584 21.2182 30.4584C21.277 28.5197 21.5612 27.4537 22.0707 27.2604C27.3902 25.242 31.1666 20.1408 31.1666 14.1667H2.83331C2.83331 20.0114 6.44807 25.0208 11.586 27.125C12.1232 27.345 12.5244 28.4561 12.7896 30.4584C14.9357 30.4584 16.3391 30.4584 17 30.4584Z" fill="#44EA87" stroke="#35D185" stroke-width="4" stroke-linejoin="round"/>
<path d="M10.2307 19.1409C10.4854 19.9823 10.8223 20.677 11.2414 21.2249C11.6509 21.7606 12.1563 22.2575 12.7573 22.7154" stroke="white" stroke-width="4" stroke-linecap="round"/>
<path d="M17.8598 14.1854C20.5202 8.69465 22.0837 5.45786 22.5503 4.47507C23.2936 2.90977 24.8027 2.5331 26.1947 3.12778C27.5866 3.72246 28.1499 5.42462 27.5656 6.61095C27.2048 7.34365 25.9792 9.86319 23.8891 14.1695" stroke="#35D185" stroke-width="4" stroke-linecap="round"/>
</svg>
