<svg width="42" height="42" viewBox="0 0 42 42" fill="none" xmlns="http://www.w3.org/2000/svg">
<g clip-path="url(#clip0_1601_16500)">
<path d="M7 26.25C7.42863 26.2501 7.84234 26.4074 8.16265 26.6923C8.48296 26.9771 8.6876 27.3696 8.73775 27.7952L8.75 28V33.25H15.75C16.196 33.2505 16.6251 33.4213 16.9494 33.7275C17.2737 34.0337 17.4689 34.4522 17.4951 34.8974C17.5212 35.3427 17.3763 35.7812 17.09 36.1232C16.8038 36.4653 16.3977 36.6851 15.9547 36.7378L15.75 36.75H8.75C7.86699 36.7503 7.01651 36.4168 6.36904 35.8164C5.72157 35.216 5.32498 34.393 5.25875 33.5125L5.25 33.25V28C5.25 27.5359 5.43437 27.0908 5.76256 26.7626C6.09075 26.4344 6.53587 26.25 7 26.25ZM35 26.25C35.4641 26.25 35.9093 26.4344 36.2374 26.7626C36.5656 27.0908 36.75 27.5359 36.75 28V33.25C36.75 34.1783 36.3813 35.0685 35.7249 35.7249C35.0685 36.3813 34.1783 36.75 33.25 36.75H26.25C25.7859 36.75 25.3408 36.5656 25.0126 36.2374C24.6844 35.9093 24.5 35.4641 24.5 35C24.5 34.5359 24.6844 34.0907 25.0126 33.7626C25.3408 33.4344 25.7859 33.25 26.25 33.25H33.25V28C33.25 27.5359 33.4344 27.0908 33.7626 26.7626C34.0907 26.4344 34.5359 26.25 35 26.25ZM35 19.25C35.446 19.2505 35.8751 19.4213 36.1994 19.7275C36.5237 20.0337 36.7189 20.4522 36.7451 20.8974C36.7712 21.3427 36.6263 21.7812 36.34 22.1232C36.0538 22.4653 35.6477 22.6851 35.2048 22.7378L35 22.75H7C6.55396 22.7495 6.12494 22.5787 5.80061 22.2725C5.47627 21.9663 5.28109 21.5478 5.25495 21.1026C5.22881 20.6573 5.37368 20.2188 5.65996 19.8768C5.94625 19.5347 6.35233 19.3149 6.79525 19.2622L7 19.25H35ZM15.75 5.25C16.2141 5.25 16.6592 5.43437 16.9874 5.76256C17.3156 6.09075 17.5 6.53587 17.5 7C17.5 7.46413 17.3156 7.90925 16.9874 8.23744C16.6592 8.56563 16.2141 8.75 15.75 8.75H8.75V14C8.75 14.4641 8.56563 14.9092 8.23744 15.2374C7.90925 15.5656 7.46413 15.75 7 15.75C6.53587 15.75 6.09075 15.5656 5.76256 15.2374C5.43437 14.9092 5.25 14.4641 5.25 14V8.75C5.25 7.82174 5.61875 6.9315 6.27513 6.27513C6.9315 5.61875 7.82174 5.25 8.75 5.25H15.75ZM33.25 5.25C34.1783 5.25 35.0685 5.61875 35.7249 6.27513C36.3813 6.9315 36.75 7.82174 36.75 8.75V14C36.75 14.4641 36.5656 14.9092 36.2374 15.2374C35.9093 15.5656 35.4641 15.75 35 15.75C34.5359 15.75 34.0907 15.5656 33.7626 15.2374C33.4344 14.9092 33.25 14.4641 33.25 14V8.75H26.25C25.7859 8.75 25.3408 8.56563 25.0126 8.23744C24.6844 7.90925 24.5 7.46413 24.5 7C24.5 6.53587 24.6844 6.09075 25.0126 5.76256C25.3408 5.43437 25.7859 5.25 26.25 5.25H33.25Z" fill="white"/>
</g>
<defs>
<clipPath id="clip0_1601_16500">
<rect width="42" height="42" fill="white"/>
</clipPath>
</defs>
</svg>
